<?xml version="1.0" encoding="UTF-8"?>
<svg id="stock" xmlns="http://www.w3.org/2000/svg" viewBox="0 0 400 400">
  <line x1="97.74" y1="350.4" x2="97.74" y2="318.83" fill="none" stroke="#4f46e5" stroke-linecap="round" stroke-linejoin="round" stroke-width="12"/>
  <line x1="97.74" y1="167.89" x2="97.74" y2="136.32" fill="none" stroke="#4f46e5" stroke-linecap="round" stroke-linejoin="round" stroke-width="12"/>
  <line x1="200" y1="230.76" x2="200" y2="199.19" fill="none" stroke="#191919" stroke-linecap="round" stroke-linejoin="round" stroke-width="12"/>
  <line x1="200" y1="81.17" x2="200" y2="49.6" fill="none" stroke="#191919" stroke-linecap="round" stroke-linejoin="round" stroke-width="12"/>
  <line x1="302.26" y1="306.71" x2="302.26" y2="274.08" fill="none" stroke="#4f46e5" stroke-linecap="round" stroke-linejoin="round" stroke-width="12"/>
  <line x1="302.26" y1="199.86" x2="302.26" y2="167.23" fill="none" stroke="#4f46e5" stroke-linecap="round" stroke-linejoin="round" stroke-width="12"/>
  <path d="M129.04,179.89v126.94c0,6.63-5.37,12-12,12h-38.6c-6.62,0-12-5.37-12-12v-126.94c0-6.63,5.38-12,12-12h38.6c6.63,0,12,5.37,12,12Z" fill="none" stroke="#4f46e5" stroke-linecap="round" stroke-linejoin="round" stroke-width="12"/>
  <rect x="168.7" y="81.17" width="62.6" height="118.02" rx="12" ry="12" fill="none" stroke="#191919" stroke-linecap="round" stroke-linejoin="round" stroke-width="12"/>
  <path d="M333.56,211.86v50.22c0,6.63-5.38,12-12,12h-38.6c-6.63,0-12-5.37-12-12v-50.22c0-6.63,5.37-12,12-12h38.6c6.62,0,12,5.37,12,12Z" fill="none" stroke="#4f46e5" stroke-linecap="round" stroke-linejoin="round" stroke-width="12"/>
</svg>